<svg width="73" height="34" viewBox="0 0 73 34" fill="none" xmlns="http://www.w3.org/2000/svg">
<path d="M6.39682 13.216C4.44082 13.216 2.93482 12.7 1.87882 11.668C0.83482 10.636 0.31282 9.022 0.31282 6.826C0.31282 5.386 0.55882 4.198 1.05082 3.262C1.54282 2.314 2.25682 1.606 3.19282 1.138C4.12882 0.67 5.26882 0.436 6.61282 0.436C7.41682 0.436 8.16082 0.526 8.84482 0.705999C9.54082 0.885999 10.1468 1.162 10.6628 1.534C11.1908 1.894 11.5928 2.35 11.8688 2.902C12.1568 3.454 12.3008 4.108 12.3008 4.864H10.2488C10.2488 4.396 10.1528 3.994 9.96082 3.658C9.78082 3.31 9.52282 3.022 9.18682 2.794C8.86282 2.566 8.47882 2.404 8.03482 2.308C7.60282 2.2 7.14082 2.146 6.64882 2.146C5.96482 2.146 5.35282 2.236 4.81282 2.416C4.28482 2.596 3.84082 2.872 3.48082 3.244C3.12082 3.616 2.85082 4.084 2.67082 4.648C2.49082 5.212 2.40082 5.878 2.40082 6.646V7.024C2.40082 8.08 2.55082 8.938 2.85082 9.598C3.16282 10.258 3.61882 10.744 4.21882 11.056C4.83082 11.356 5.57482 11.506 6.45082 11.506C7.27882 11.506 7.97482 11.386 8.53882 11.146C9.10282 10.906 9.53482 10.552 9.83482 10.084C10.1348 9.604 10.2848 9.01 10.2848 8.302V8.122H6.12682V6.448H12.3008V13H10.8428L10.6448 11.524C10.3088 11.92 9.92482 12.244 9.49282 12.496C9.06082 12.736 8.58682 12.916 8.07082 13.036C7.56682 13.156 7.00882 13.216 6.39682 13.216ZM15.1074 13V0.651999H17.1234V11.254H23.2794V13H15.1074ZM30.0921 13.216C28.8201 13.216 27.7161 12.982 26.7801 12.514C25.8561 12.046 25.1421 11.338 24.6381 10.39C24.1461 9.442 23.9001 8.254 23.9001 6.826C23.9001 5.386 24.1461 4.198 24.6381 3.262C25.1421 2.314 25.8561 1.606 26.7801 1.138C27.7161 0.67 28.8201 0.436 30.0921 0.436C31.3881 0.436 32.4981 0.67 33.4221 1.138C34.3461 1.606 35.0541 2.314 35.5461 3.262C36.0501 4.198 36.3021 5.386 36.3021 6.826C36.3021 8.254 36.0501 9.442 35.5461 10.39C35.0541 11.338 34.3461 12.046 33.4221 12.514C32.4981 12.982 31.3881 13.216 30.0921 13.216ZM30.0921 11.506C30.7521 11.506 31.3341 11.416 31.8381 11.236C32.3541 11.056 32.7861 10.78 33.1341 10.408C33.4941 10.036 33.7641 9.568 33.9441 9.004C34.1361 8.44 34.2321 7.786 34.2321 7.042V6.646C34.2321 5.878 34.1361 5.212 33.9441 4.648C33.7641 4.084 33.4941 3.616 33.1341 3.244C32.7861 2.872 32.3541 2.596 31.8381 2.416C31.3341 2.236 30.7521 2.146 30.0921 2.146C29.4441 2.146 28.8621 2.236 28.3461 2.416C27.8421 2.596 27.4101 2.872 27.0501 3.244C26.7021 3.616 26.4381 4.084 26.2581 4.648C26.0781 5.212 25.9881 5.878 25.9881 6.646V7.042C25.9881 7.786 26.0781 8.44 26.2581 9.004C26.4381 9.568 26.7021 10.036 27.0501 10.408C27.4101 10.78 27.8421 11.056 28.3461 11.236C28.8621 11.416 29.4441 11.506 30.0921 11.506ZM43.9729 13.216C42.7129 13.216 41.6389 12.994 40.7509 12.55C39.8749 12.094 39.2029 11.392 38.7349 10.444C38.2669 9.496 38.0329 8.29 38.0329 6.826C38.0329 4.666 38.5549 3.064 39.5989 2.02C40.6549 0.964 42.1189 0.436 43.9909 0.436C45.0229 0.436 45.9469 0.61 46.7629 0.957999C47.5909 1.306 48.2389 1.828 48.7069 2.524C49.1869 3.208 49.4269 4.084 49.4269 5.152H47.3749C47.3749 4.492 47.2369 3.94 46.9609 3.496C46.6849 3.052 46.2889 2.716 45.7729 2.488C45.2689 2.26 44.6809 2.146 44.0089 2.146C43.1689 2.146 42.4549 2.314 41.8669 2.65C41.2909 2.974 40.8529 3.466 40.5529 4.126C40.2649 4.786 40.1209 5.626 40.1209 6.646V7.042C40.1209 8.062 40.2649 8.902 40.5529 9.562C40.8529 10.222 41.2909 10.714 41.8669 11.038C42.4429 11.35 43.1569 11.506 44.0089 11.506C44.7049 11.506 45.3109 11.398 45.8269 11.182C46.3429 10.954 46.7389 10.618 47.0149 10.174C47.3029 9.73 47.4469 9.178 47.4469 8.518H49.4269C49.4269 9.586 49.1869 10.468 48.7069 11.164C48.2389 11.86 47.5909 12.376 46.7629 12.712C45.9469 13.048 45.0169 13.216 43.9729 13.216ZM50.3199 13L55.1619 0.651999H57.7359L62.5959 13H60.4359L59.3379 10.138H53.4879L52.3899 13H50.3199ZM54.1359 8.428H58.6719L57.2859 4.81C57.2499 4.702 57.1959 4.552 57.1239 4.36C57.0519 4.168 56.9739 3.958 56.8899 3.73C56.8179 3.502 56.7399 3.274 56.6559 3.046C56.5839 2.806 56.5179 2.59 56.4579 2.398H56.3499C56.2779 2.626 56.1879 2.896 56.0799 3.208C55.9719 3.52 55.8639 3.82 55.7559 4.108C55.6599 4.396 55.5759 4.63 55.5039 4.81L54.1359 8.428ZM64.1855 13V0.651999H66.2015V11.254H72.3575V13H64.1855Z" fill="black"/>
<path d="M7.82297 33.216C7.15097 33.216 6.50297 33.144 5.87897 33C5.25497 32.868 4.70297 32.652 4.22297 32.352C3.74297 32.04 3.36497 31.65 3.08897 31.182C2.81297 30.702 2.67497 30.132 2.67497 29.472C2.67497 29.4 2.67497 29.334 2.67497 29.274C2.68697 29.202 2.69297 29.142 2.69297 29.094H4.70897C4.70897 29.13 4.70297 29.184 4.69097 29.256C4.69097 29.328 4.69097 29.388 4.69097 29.436C4.69097 29.88 4.82297 30.258 5.08697 30.57C5.35097 30.882 5.71697 31.116 6.18497 31.272C6.66497 31.428 7.21097 31.506 7.82297 31.506C8.15897 31.506 8.48297 31.488 8.79497 31.452C9.10697 31.404 9.38897 31.338 9.64097 31.254C9.90497 31.158 10.133 31.044 10.325 30.912C10.517 30.768 10.667 30.6 10.775 30.408C10.883 30.216 10.937 29.994 10.937 29.742C10.937 29.358 10.823 29.04 10.595 28.788C10.379 28.536 10.079 28.326 9.69497 28.158C9.32297 27.99 8.89697 27.84 8.41697 27.708C7.94897 27.576 7.46297 27.444 6.95897 27.312C6.45497 27.18 5.96297 27.024 5.48297 26.844C5.01497 26.664 4.58897 26.448 4.20497 26.196C3.83297 25.932 3.53297 25.608 3.30497 25.224C3.08897 24.828 2.98097 24.348 2.98097 23.784C2.98097 23.244 3.09497 22.764 3.32297 22.344C3.55097 21.924 3.88097 21.576 4.31297 21.3C4.74497 21.012 5.26097 20.796 5.86097 20.652C6.46097 20.508 7.13897 20.436 7.89497 20.436C8.54297 20.436 9.15497 20.508 9.73097 20.652C10.307 20.784 10.811 20.994 11.243 21.282C11.675 21.57 12.011 21.936 12.251 22.38C12.503 22.824 12.629 23.352 12.629 23.964V24.18H10.631V23.946C10.631 23.562 10.517 23.238 10.289 22.974C10.061 22.71 9.74297 22.506 9.33497 22.362C8.92697 22.218 8.45297 22.146 7.91297 22.146C7.27697 22.146 6.74297 22.212 6.31097 22.344C5.87897 22.464 5.54897 22.638 5.32097 22.866C5.10497 23.082 4.99697 23.346 4.99697 23.658C4.99697 24.006 5.11097 24.294 5.33897 24.522C5.56697 24.738 5.86697 24.924 6.23897 25.08C6.62297 25.236 7.04897 25.38 7.51697 25.512C7.99697 25.632 8.48297 25.764 8.97497 25.908C9.47897 26.04 9.96497 26.196 10.433 26.376C10.913 26.556 11.339 26.778 11.711 27.042C12.095 27.306 12.401 27.636 12.629 28.032C12.857 28.416 12.971 28.89 12.971 29.454C12.971 30.342 12.749 31.068 12.305 31.632C11.861 32.184 11.249 32.586 10.469 32.838C9.70097 33.09 8.81897 33.216 7.82297 33.216ZM18.3336 33V22.38H14.2476V20.652H24.4716V22.38H20.3496V33H18.3336ZM31.389 33.216C30.333 33.216 29.421 33.048 28.653 32.712C27.885 32.364 27.297 31.83 26.889 31.11C26.481 30.39 26.277 29.478 26.277 28.374V20.652H28.293V28.428C28.293 29.448 28.563 30.216 29.103 30.732C29.643 31.248 30.405 31.506 31.389 31.506C32.385 31.506 33.159 31.248 33.711 30.732C34.275 30.216 34.557 29.448 34.557 28.428V20.652H36.573V28.374C36.573 29.478 36.363 30.39 35.943 31.11C35.535 31.83 34.941 32.364 34.161 32.712C33.393 33.048 32.469 33.216 31.389 33.216ZM39.4268 33V20.652H44.1968C45.4688 20.652 46.5548 20.874 47.4548 21.318C48.3548 21.75 49.0448 22.422 49.5248 23.334C50.0168 24.234 50.2628 25.398 50.2628 26.826C50.2628 28.242 50.0168 29.406 49.5248 30.318C49.0448 31.23 48.3548 31.908 47.4548 32.352C46.5548 32.784 45.4688 33 44.1968 33H39.4268ZM41.4428 31.272H44.1788C44.8148 31.272 45.3788 31.188 45.8708 31.02C46.3748 30.852 46.7948 30.594 47.1308 30.246C47.4788 29.898 47.7368 29.46 47.9048 28.932C48.0848 28.392 48.1748 27.756 48.1748 27.024V26.646C48.1748 25.902 48.0848 25.266 47.9048 24.738C47.7368 24.198 47.4788 23.754 47.1308 23.406C46.7948 23.058 46.3748 22.8 45.8708 22.632C45.3788 22.464 44.8148 22.38 44.1788 22.38H41.4428V31.272ZM52.5928 33V20.652H54.6088V33H52.5928ZM63.1302 33.216C61.8582 33.216 60.7542 32.982 59.8182 32.514C58.8942 32.046 58.1802 31.338 57.6762 30.39C57.1842 29.442 56.9382 28.254 56.9382 26.826C56.9382 25.386 57.1842 24.198 57.6762 23.262C58.1802 22.314 58.8942 21.606 59.8182 21.138C60.7542 20.67 61.8582 20.436 63.1302 20.436C64.4262 20.436 65.5362 20.67 66.4602 21.138C67.3842 21.606 68.0922 22.314 68.5842 23.262C69.0882 24.198 69.3402 25.386 69.3402 26.826C69.3402 28.254 69.0882 29.442 68.5842 30.39C68.0922 31.338 67.3842 32.046 66.4602 32.514C65.5362 32.982 64.4262 33.216 63.1302 33.216ZM63.1302 31.506C63.7902 31.506 64.3722 31.416 64.8762 31.236C65.3922 31.056 65.8242 30.78 66.1722 30.408C66.5322 30.036 66.8022 29.568 66.9822 29.004C67.1742 28.44 67.2702 27.786 67.2702 27.042V26.646C67.2702 25.878 67.1742 25.212 66.9822 24.648C66.8022 24.084 66.5322 23.616 66.1722 23.244C65.8242 22.872 65.3922 22.596 64.8762 22.416C64.3722 22.236 63.7902 22.146 63.1302 22.146C62.4822 22.146 61.9002 22.236 61.3842 22.416C60.8802 22.596 60.4482 22.872 60.0882 23.244C59.7402 23.616 59.4762 24.084 59.2962 24.648C59.1162 25.212 59.0262 25.878 59.0262 26.646V27.042C59.0262 27.786 59.1162 28.44 59.2962 29.004C59.4762 29.568 59.7402 30.036 60.0882 30.408C60.4482 30.78 60.8802 31.056 61.3842 31.236C61.9002 31.416 62.4822 31.506 63.1302 31.506Z" fill="#810CFF"/>
</svg>
