<svg width="336" height="220" viewBox="0 0 336 220" fill="none" xmlns="http://www.w3.org/2000/svg">
<g clip-path="url(#clip0_109_250)">
<path d="M75.7439 70.5497V94.6927C75.7439 99.031 75.0464 102.751 73.646 105.842C72.2457 108.933 70.2235 111.292 67.5688 112.941C64.914 114.584 61.7186 115.419 57.9825 115.419C54.214 115.419 50.9753 114.649 48.2827 113.087C45.5847 111.526 43.5193 109.264 42.0757 106.292C40.6321 103.315 39.9238 99.7523 39.9238 95.5875V53.0878C39.9238 48.6681 40.6213 44.8883 42.0217 41.7376C43.422 38.5869 45.4442 36.2008 48.0989 34.5522C50.7536 32.909 53.9491 32.0739 57.6852 32.0739C61.3239 32.0739 64.4491 32.8765 67.0714 34.4654C69.6991 36.0544 71.6779 38.3862 73.0513 41.4502C74.4192 44.525 75.1221 48.1909 75.1491 52.4534V57.6214H63.6921V52.4534C63.6921 50.7343 63.465 49.2647 62.9946 48.0445C62.5242 46.8298 61.8376 45.897 60.94 45.2679C60.0425 44.6389 58.9558 44.3081 57.6852 44.3081C56.2848 44.3081 55.0899 44.6497 54.0734 45.3547C53.0623 46.0543 52.3054 47.0412 51.7755 48.359C51.2349 49.6768 50.9753 51.2332 50.9753 53.0824V95.582C50.9753 97.1113 51.2457 98.4562 51.8026 99.633C52.3595 100.793 53.1597 101.677 54.1978 102.269C55.2521 102.87 56.5065 103.169 57.9771 103.169C59.4207 103.169 60.6427 102.838 61.6862 102.182C62.7135 101.526 63.5137 100.577 64.0706 99.351C64.6275 98.12 64.8978 96.6016 64.8978 94.8012V82.2253H57.7338V70.5389H75.7385V70.5497H75.7439Z" fill="#030304"/>
<path d="M84.5461 36.3363H95.5598L95.3056 110.419H84.292L84.5461 36.3363ZM89.4555 99.9312H114.538V110.419H89.4555V99.9312Z" fill="#030304"/>
<path d="M258.877 37.6541H269.891L269.637 111.737H258.623L258.877 37.6541ZM263.771 101.249H288.853V111.737H263.771V101.249Z" fill="#030304"/>
<path d="M175.045 111.466C172.434 109.947 170.422 107.762 169.038 104.882C167.638 102.019 166.957 98.5701 166.957 94.5246V56.1626C166.957 52.0846 167.654 48.6193 169.038 45.7614C170.439 42.8981 172.434 40.7127 175.045 39.178C177.657 37.6595 180.793 36.9003 184.464 36.9003C188.157 36.9003 191.325 37.6433 193.936 39.1454C196.548 40.6476 198.543 42.8493 199.916 45.7397C201.284 48.6464 201.987 52.1063 201.987 56.141V60.7505H190.687V56.141C190.687 54.4815 190.444 53.0499 189.973 51.846C189.503 50.6421 188.789 49.7256 187.859 49.0965C186.918 48.4837 185.788 48.1638 184.48 48.1638C183.182 48.1638 182.085 48.4783 181.171 49.0965C180.257 49.7093 179.544 50.6258 179.03 51.8134C178.516 53.0011 178.262 54.449 178.262 56.1355V94.4975C178.262 96.184 178.516 97.6157 179.03 98.7924C179.544 99.9692 180.257 100.869 181.171 101.482C182.085 102.095 183.199 102.415 184.48 102.415C185.837 102.415 186.978 102.1 187.892 101.455C188.805 100.81 189.503 99.9096 189.973 98.7382C190.444 97.5668 190.687 96.1352 190.687 94.4432V89.8337H201.987V94.4432C201.96 98.4779 201.257 101.954 199.906 104.844C198.548 107.751 196.553 109.937 193.926 111.439C191.298 112.941 188.146 113.684 184.48 113.684C180.793 113.754 177.657 112.995 175.045 111.466Z" fill="#030304"/>
<path d="M126.378 66.2439V96.1786C126.378 96.1786 128.503 100.371 130.547 101.07C130.547 101.07 128.806 107.052 129.779 111.103C129.779 111.103 120.49 106.867 118.836 101.374L118.349 66.2602H126.384V66.2439H126.378Z" fill="#030304"/>
<path d="M153.288 84.2047V96.6829C153.288 96.6829 153.002 99.4757 149.806 100.777C149.806 100.777 152.131 107.16 150.39 110.251C150.39 110.251 158.808 109.752 161.901 99.877L162.285 84.2101L153.288 84.2047Z" fill="#030304"/>
<path d="M149.806 45.5988C149.806 45.5988 152.802 47.9903 153.385 51.0814V81.4173H161.804V46.6996C161.804 46.6996 158.425 38.4133 150.774 36.7268C150.774 36.7105 152.028 43.0066 149.806 45.5988Z" fill="#030304"/>
<path d="M130.547 45.9946C130.547 45.9946 126.968 48.2831 126.681 51.3742C126.395 54.4653 126.681 63.3535 126.681 63.3535H118.365V47.3829C118.365 47.3829 121.847 37.1064 129.109 36.7051C129.087 36.7105 128.806 43.8959 130.547 45.9946Z" fill="#030304"/>
<path d="M140.177 49.243C144.865 49.243 148.665 45.3218 148.665 40.4849C148.665 35.648 144.865 31.7268 140.177 31.7268C135.488 31.7268 131.688 35.648 131.688 40.4849C131.688 45.3218 135.488 49.243 140.177 49.243Z" fill="#030304"/>
<path d="M140.177 115.788C144.865 115.788 148.665 111.867 148.665 107.03C148.665 102.193 144.865 98.2719 140.177 98.2719C135.488 98.2719 131.688 102.193 131.688 107.03C131.688 111.867 135.488 115.788 140.177 115.788Z" fill="#030304"/>
<path d="M237.477 99.3998C232.882 99.3998 228.562 99.2696 224.269 99.4974C223.312 99.557 221.857 100.783 221.63 101.715C220.96 104.546 220.76 107.496 220.403 110.403C220.132 112.561 219.235 114.009 216.748 113.711C216.434 113.668 216.121 113.651 215.791 113.64C209.184 113.424 209.227 113.424 210.27 106.856C213.423 86.9812 216.548 67.0899 219.673 47.2148C220.03 44.91 220.343 42.6053 220.673 40.3005C221.003 37.9958 222.128 36.6671 224.642 36.7214C228.134 36.7919 231.633 36.7051 235.125 36.781C238.494 36.8515 239.646 38.3428 239.975 41.6725C240.375 45.8536 241.23 49.9696 241.83 54.1236C242.571 59.3188 243.171 64.5248 243.982 69.72C244.555 73.3696 245.452 76.9759 246.053 80.6255C246.637 84.2155 246.983 87.8652 247.55 91.4606C248.578 97.941 249.675 104.427 250.773 110.891C251.157 113.179 250.275 113.955 247.977 113.684C246.096 113.456 244.166 113.586 242.257 113.657C240.143 113.727 239.218 112.724 238.991 110.652C238.602 107.187 238.061 103.738 237.477 99.3998ZM230.043 51.9653C229.627 52.0086 229.2 52.052 228.789 52.1063C228.545 53.2234 228.232 54.3242 228.075 55.4414C227.264 61.2222 226.534 67.0194 225.707 72.784C225.08 77.1603 224.296 81.5258 223.679 85.9075C223.382 88.0116 223.679 89.7686 226.534 89.6005C228.859 89.4704 231.2 89.5571 233.525 89.5409C235.039 89.5246 235.893 89.0094 235.623 87.2253C234.141 77.5073 232.725 67.7786 231.26 58.0498C230.941 56.0162 230.443 53.9934 230.043 51.9653Z" fill="#030304"/>
</g>
<path d="M59.8739 182.482C56.247 182.482 52.8834 181.897 49.7831 180.727C46.6827 179.557 44.1966 177.656 42.3246 175.023C40.5112 172.391 39.6045 168.852 39.6045 164.406C39.6045 164.113 39.6045 163.792 39.6045 163.441C39.663 163.031 39.6923 162.768 39.6923 162.651H47.6772C47.6772 162.709 47.6479 162.973 47.5894 163.441C47.5894 163.85 47.5894 164.201 47.5894 164.494C47.5894 168.179 48.7301 170.928 51.0115 172.742C53.2929 174.497 56.13 175.374 59.5229 175.374C63.5592 175.374 66.6596 174.526 68.824 172.829C71.0469 171.075 72.1583 168.588 72.1583 165.371C72.1583 163.207 71.5733 161.452 70.4034 160.106C69.2919 158.761 67.8003 157.649 65.9283 156.772C64.1149 155.894 62.0968 155.105 59.8739 154.403C57.651 153.701 55.3988 152.94 53.1174 152.121C50.8945 151.302 48.8471 150.249 46.9752 148.963C45.1618 147.676 43.6701 146.038 42.5001 144.049C41.3887 142.001 40.833 139.427 40.833 136.327C40.833 132.642 41.6812 129.6 43.3776 127.202C45.1325 124.803 47.4432 123.048 50.3095 121.937C53.2344 120.767 56.4518 120.182 59.9616 120.182C63.4715 120.182 66.6303 120.767 69.4382 121.937C72.3046 123.048 74.586 124.862 76.2824 127.377C77.9788 129.834 78.827 133.08 78.827 137.117V138.17H70.8421V136.854C70.8421 133.753 69.8184 131.384 67.771 129.746C65.7236 128.108 63.179 127.289 60.1371 127.289C56.9782 127.289 54.3166 127.962 52.1522 129.307C50.0463 130.653 48.9934 132.788 48.9934 135.713C48.9934 137.76 49.5491 139.427 50.6605 140.714C51.8305 142.001 53.3222 143.084 55.1356 143.961C57.0075 144.78 59.0549 145.54 61.2778 146.242C63.5007 146.944 65.7236 147.705 67.9465 148.524C70.1694 149.343 72.1876 150.396 74.001 151.683C75.8729 152.97 77.3646 154.608 78.476 156.596C79.646 158.527 80.231 161.013 80.231 164.055C80.231 168.559 79.3242 172.157 77.5108 174.848C75.7559 177.539 73.3575 179.498 70.3157 180.727C67.2738 181.897 63.7932 182.482 59.8739 182.482Z" fill="#810CFF"/>
<path d="M97.9736 183V128.154H81.0491V120.913H122.863V128.154H105.938V183H97.9736Z" fill="#810CFF"/>
<path d="M147.509 182.06C141.268 182.06 136.381 180.293 132.848 176.761C129.315 173.228 127.549 168.076 127.549 161.305V120.413H135.321V161.747C135.321 166.045 136.41 169.312 138.589 171.55C140.767 173.787 143.741 174.906 147.509 174.906C151.336 174.906 154.31 173.787 156.429 171.55C158.608 169.312 159.697 166.045 159.697 161.747V120.413H167.469V161.305C167.469 168.076 165.703 173.228 162.17 176.761C158.637 180.293 153.75 182.06 147.509 182.06Z" fill="#810CFF"/>
<path d="M229.516 182V120.528H236.595V182H229.516Z" fill="#810CFF"/>
<path d="M266.013 182.039C258.741 182.039 253.027 179.499 248.872 174.42C244.716 169.284 242.638 161.579 242.638 151.305C242.638 140.974 244.716 133.269 248.872 128.19C253.027 123.111 258.741 120.572 266.013 120.572C273.285 120.572 278.999 123.111 283.155 128.19C287.31 133.269 289.388 140.974 289.388 151.305C289.388 161.579 287.31 169.284 283.155 174.42C278.999 179.499 273.285 182.039 266.013 182.039ZM266.013 175.026C270.804 175.026 274.555 173.237 277.268 169.659C280.038 166.081 281.423 160.684 281.423 153.47V149.141C281.423 141.927 280.038 136.53 277.268 132.952C274.555 129.374 270.804 127.584 266.013 127.584C261.281 127.584 257.529 129.374 254.759 132.952C251.988 136.53 250.603 141.927 250.603 149.141V153.47C250.603 160.684 251.988 166.081 254.759 169.659C257.529 173.237 261.281 175.026 266.013 175.026Z" fill="#810CFF"/>
<g clip-path="url(#clip1_109_250)">
<path d="M201.692 121.161C201.451 121.101 201.21 121.04 200.953 121H173L173.195 181.94C175.556 182.045 177.779 181.97 179.277 181.94L179.082 127.211L200.953 127.326C205.57 128.74 211.404 131.858 214.5 135.5C217.596 139.142 218.563 142.726 219.15 147.431C219.736 152.136 218.925 156.907 216.813 161.171C214.702 165.436 210.913 169.994 206.779 172.455V142.468L193.5 132L184.893 139.134V181.955H192.037V180.446L192.099 174.914L192 136L195.004 138V181L198 180.5C198 181 198 179.56 198 180.5C197.931 180.518 198.071 180.498 198 180.5C204.85 179.157 213.203 175.056 217.7 169.818C222.196 164.58 224.742 157.999 224.918 151.157C225.094 144.315 222.89 137.617 218.669 132.164C214.448 126.71 208.459 122.825 201.687 121.146L201.692 121.161ZM201.831 172.455H198.53V139.919L201.831 142.468V172.455Z" fill="#810CFF"/>
</g>
<defs>
<clipPath id="clip0_109_250">
<rect width="336" height="84" fill="white" transform="translate(0 32)"/>
</clipPath>
<clipPath id="clip1_109_250">
<rect width="52" height="61" fill="white" transform="translate(173 121)"/>
</clipPath>
</defs>
</svg>
